<?xml version="1.0" standalone="no"?>
<!DOCTYPE svg PUBLIC "-//W3C//DTD SVG 20010904//EN"
 "http://www.w3.org/TR/2001/REC-SVG-20010904/DTD/svg10.dtd">
<svg version="1.0" xmlns="http://www.w3.org/2000/svg"
 width="300.000000pt" height="52.000000pt" viewBox="0 0 300.000000 52.000000"
 preserveAspectRatio="xMidYMid meet">
<metadata>
Created by potrace 1.10, written by Peter Selinger 2001-2011
</metadata>
<g transform="translate(0.000000,52.000000) scale(0.100000,-0.100000)"
fill="#000000" stroke="none">
<path d="M336 481 c-23 -19 -59 -34 -94 -41 -76 -15 -203 -50 -225 -62 -43
-22 -2 -16 114 17 68 20 133 34 143 31 11 -3 26 0 33 6 9 7 40 9 88 5 41 -3
75 -2 75 3 0 13 -66 23 -106 17 -19 -3 -34 -4 -34 -1 0 11 64 42 76 37 8 -3
14 0 14 6 0 21 -48 11 -84 -18z"/>
<path d="M1304 461 c-67 -41 -156 -184 -158 -253 -2 -87 68 -88 240 -5 100 50
112 53 98 32 -32 -50 9 -74 59 -35 18 14 34 19 51 14 18 -4 42 2 77 21 28 14
57 24 64 21 15 -5 29 20 16 29 -5 2 -35 -9 -67 -25 -70 -35 -108 -40 -99 -11
3 10 -1 23 -9 30 -19 16 -54 5 -199 -61 -126 -58 -175 -69 -201 -42 -22 21
-17 53 21 130 58 119 183 201 183 120 0 -27 -58 -146 -71 -146 -5 0 -9 -7 -9
-15 0 -31 20 -13 55 49 20 36 39 81 42 100 10 63 -32 84 -93 47z m256 -210 c0
-21 -15 -35 -47 -45 -32 -10 -30 17 3 43 33 26 44 26 44 2z"/>
<path d="M2555 398 c-20 -24 -48 -62 -61 -85 -27 -45 -90 -83 -138 -83 -22 0
-26 4 -21 19 3 10 -1 24 -10 31 -15 13 -51 2 -220 -66 -17 -7 -16 -3 8 25 50
60 28 74 -49 32 -47 -25 -54 -27 -49 -11 10 33 -10 30 -94 -10 -46 -22 -85
-40 -87 -40 -3 0 7 16 22 35 41 54 20 64 -54 26 -33 -16 -62 -28 -65 -25 -3 3
-10 -3 -16 -14 -17 -31 -2 -32 42 -2 23 15 53 31 66 35 l24 7 -21 -27 c-25
-31 -28 -55 -9 -55 7 0 45 16 86 35 86 41 99 43 77 11 -9 -14 -12 -27 -7 -31
5 -3 12 -1 16 5 8 13 100 60 117 60 6 0 0 -13 -15 -28 -29 -31 -35 -52 -13
-52 7 0 48 16 90 35 75 34 76 34 60 10 -32 -50 9 -74 59 -35 18 14 34 19 51
14 15 -3 42 2 68 14 l44 19 -4 -30 c-5 -30 -4 -30 32 -24 20 3 60 17 89 30
l53 24 -4 -30 c-5 -30 -4 -30 34 -24 21 4 70 23 108 42 61 33 66 34 52 13 -37
-53 -4 -78 48 -37 27 22 27 21 -9 -52 -21 -40 -48 -90 -61 -110 -13 -21 -20
-40 -15 -43 10 -7 19 3 54 65 15 26 59 76 98 113 39 36 66 66 59 66 -6 0 -39
-26 -72 -57 -61 -58 -63 -52 -12 29 30 48 16 56 -31 18 -36 -28 -55 -37 -55
-24 0 10 23 48 38 63 9 9 11 16 4 19 -9 3 -46 -15 -137 -66 -13 -6 -38 -15
-55 -19 -32 -6 -33 -5 -26 23 4 16 23 42 42 58 42 35 104 113 104 132 0 43
-73 -23 -127 -113 -26 -44 -94 -86 -162 -99 -33 -7 -34 -7 -27 22 4 16 23 42
42 58 42 35 104 113 104 132 0 26 -29 14 -65 -28z m17 -26 c-36 -45 -72 -77
-57 -52 17 31 77 101 82 96 3 -3 -8 -23 -25 -44z m170 0 c-36 -45 -72 -77 -57
-52 17 31 77 101 82 96 3 -3 -8 -23 -25 -44z m-432 -121 c0 -20 -35 -51 -57
-51 -22 0 -14 27 13 49 33 26 44 26 44 2z"/>
<path d="M222 366 c-51 -64 -112 -179 -112 -211 0 -12 7 -28 16 -36 14 -11 15
-9 9 22 -7 44 33 131 99 212 25 31 46 59 46 62 0 15 -20 -2 -58 -49z"/>
<path d="M335 281 c-62 -22 -98 -41 -92 -48 3 -2 19 3 36 11 42 22 46 20 22
-10 -11 -15 -18 -30 -15 -35 8 -13 48 -11 63 4 11 10 14 10 18 0 7 -19 49 -16
93 7 22 11 40 18 40 14 0 -3 10 1 23 9 13 8 40 15 60 15 34 0 36 -2 31 -24 -9
-34 18 -41 69 -18 23 10 44 21 47 25 9 11 52 31 56 26 3 -2 -2 -10 -11 -17
-23 -19 -19 -50 6 -50 11 0 29 5 39 10 13 7 21 7 25 0 3 -5 14 -10 23 -10 25
0 122 42 116 51 -2 4 -23 -1 -47 -11 -57 -26 -80 -26 -72 0 3 11 3 20 0 20 -4
0 -18 -9 -32 -20 -26 -21 -53 -26 -53 -12 0 16 45 50 69 54 14 1 26 9 29 17 7
21 -52 5 -142 -40 -108 -54 -118 -52 -90 15 6 16 4 18 -12 12 -43 -18 -54 -19
-48 -3 9 24 -13 29 -29 7 -15 -22 -124 -70 -158 -70 -18 0 -19 2 -9 15 21 25
3 29 -26 6 -15 -11 -36 -21 -47 -21 -19 0 -19 2 7 29 15 16 41 32 57 35 17 3
28 10 24 16 -8 13 -11 13 -70 -9z"/>
</g>
</svg>
