<?xml version="1.0" encoding="UTF-8" standalone="no"?>
<!-- Created with Inkscape (http://www.inkscape.org/) -->

<svg
   version="1.1"
   id="svg2"
   xml:space="preserve"
   width="1576.6506"
   height="437.9418"
   viewBox="0 0 1576.6506 437.9418"
   sodipodi:docname="tcls-logo-gold.svg"
   inkscape:version="1.1.1 (3bf5ae0d25, 2021-09-20)"
   xmlns:inkscape="http://www.inkscape.org/namespaces/inkscape"
   xmlns:sodipodi="http://sodipodi.sourceforge.net/DTD/sodipodi-0.dtd"
   xmlns="http://www.w3.org/2000/svg"
   xmlns:svg="http://www.w3.org/2000/svg"><defs
     id="defs6"><clipPath
       clipPathUnits="userSpaceOnUse"
       id="clipPath20"><path
         d="M 0,2000 H 2000 V 0 H 0 Z"
         id="path18" /></clipPath></defs><sodipodi:namedview
     id="namedview4"
     pagecolor="#ffffff"
     bordercolor="#666666"
     borderopacity="1.0"
     inkscape:pageshadow="2"
     inkscape:pageopacity="0.0"
     inkscape:pagecheckerboard="0"
     showgrid="false"
     fit-margin-top="0"
     fit-margin-left="0"
     fit-margin-right="0"
     fit-margin-bottom="0"
     inkscape:zoom="0.32324999"
     inkscape:cx="422.27379"
     inkscape:cy="224.28462"
     inkscape:window-width="1920"
     inkscape:window-height="1051"
     inkscape:window-x="-9"
     inkscape:window-y="-9"
     inkscape:window-maximized="1"
     inkscape:current-layer="g8" /><g
     id="g8"
     inkscape:groupmode="layer"
     inkscape:label="Treasure Logo"
     transform="matrix(1.3333333,0,0,-1.3333333,-539.38079,1556.6042)"><g
       id="g10"
       transform="translate(805.4252,1082.4739)"><path
         d="m 0,0 h -20.746 v -98.813 h -5.072 V 0 h -20.745 v 5.072 h 20.745 5.072 H 0 Z"
         style="fill:#1d1819;fill-opacity:1;fill-rule:nonzero;stroke:none"
         id="path12" /></g><g
       id="g14"><g
         id="g16"
         clip-path="url(#clipPath20)"><g
           id="g22"
           transform="translate(850.9144,1060.1909)"><path
             d="m 0,0 v -5.072 h -5.993 c -2.152,0 -4.15,-0.41 -5.994,-1.228 -1.844,-0.822 -3.483,-1.921 -4.918,-3.305 -1.434,-1.383 -2.561,-3.023 -3.379,-4.917 -0.821,-1.897 -1.231,-3.919 -1.231,-6.071 v -17.98 -37.957 h -5.07 v 37.957 17.98 14.754 h -5.072 v 5.07 h 5.072 5.07 v -5.07 -1.23 c 3.893,4.507 8.913,6.863 15.061,7.069 z"
             style="fill:#1d1819;fill-opacity:1;fill-rule:nonzero;stroke:none"
             id="path24" /></g><g
           id="g26"
           transform="translate(890.7167,1055.1194)"><path
             d="m 0,0 c -2.151,0 -4.175,-0.411 -6.07,-1.229 -1.896,-0.821 -3.534,-1.921 -4.917,-3.304 -1.383,-1.383 -2.485,-3.023 -3.305,-4.918 -0.821,-1.897 -1.229,-3.919 -1.229,-6.07 v -17.673 c 1.536,0.615 3.432,1.357 5.687,2.229 2.251,0.869 4.507,1.714 6.761,2.535 2.252,0.819 4.326,1.588 6.223,2.305 1.895,0.716 3.252,1.229 4.073,1.537 1.844,0.716 3.689,1.791 5.533,3.228 1.844,1.433 2.766,3.431 2.766,5.993 0,2.151 -0.411,4.149 -1.23,5.993 -0.822,1.844 -1.92,3.458 -3.303,4.841 C 9.605,-3.15 7.965,-2.05 6.07,-1.229 4.173,-0.411 2.152,0 0,0 m 8.914,-29.352 c -0.922,-0.307 -2.459,-0.898 -4.611,-1.767 -2.151,-0.872 -4.483,-1.767 -6.992,-2.689 -2.511,-0.923 -4.944,-1.845 -7.3,-2.767 -2.358,-0.922 -4.202,-1.589 -5.532,-1.998 v -13.062 c 0,-2.151 0.408,-4.175 1.229,-6.07 0.82,-1.897 1.922,-3.535 3.305,-4.917 1.383,-1.383 3.021,-2.486 4.917,-3.304 1.895,-0.821 3.919,-1.23 6.07,-1.23 2.152,0 4.173,0.409 6.07,1.23 1.895,0.818 3.535,1.921 4.919,3.304 1.383,1.382 2.481,3.02 3.303,4.917 0.819,1.895 1.23,3.919 1.23,6.07 h 5.071 c 0,-2.869 -0.538,-5.559 -1.614,-8.068 -1.076,-2.511 -2.535,-4.687 -4.379,-6.531 -1.844,-1.844 -4.022,-3.304 -6.532,-4.38 -2.512,-1.075 -5.2,-1.613 -8.068,-1.613 -2.87,0 -5.558,0.538 -8.067,1.613 -2.513,1.076 -4.687,2.536 -6.531,4.38 -1.844,1.844 -3.305,4.02 -4.381,6.531 -1.075,2.509 -1.613,5.199 -1.613,8.068 v 36.114 c 0,2.867 0.538,5.557 1.613,8.068 1.076,2.509 2.537,4.687 4.381,6.531 1.844,1.845 4.018,3.304 6.531,4.38 2.509,1.075 5.197,1.614 8.067,1.614 2.868,0 5.556,-0.539 8.068,-1.614 2.51,-1.076 4.688,-2.535 6.532,-4.38 1.844,-1.844 3.303,-4.022 4.379,-6.531 1.076,-2.511 1.614,-5.148 1.614,-7.914 v -0.154 c 0,-6.354 -3.894,-10.963 -11.679,-13.831"
             style="fill:#1d1819;fill-opacity:1;fill-rule:nonzero;stroke:none"
             id="path28" /></g><g
           id="g30"
           transform="translate(971.243,1021.6182)"><path
             d="M 0,0 V 3.842 C -1.537,3.227 -3.435,2.509 -5.686,1.69 c -2.254,-0.821 -4.51,-1.666 -6.762,-2.535 -2.254,-0.872 -4.302,-1.667 -6.146,-2.382 -1.844,-0.718 -3.178,-1.229 -3.996,-1.537 -1.948,-0.718 -3.843,-1.793 -5.686,-3.227 -1.844,-1.436 -2.766,-3.381 -2.766,-5.84 v -4.303 c 0,-2.151 0.407,-4.175 1.229,-6.07 0.819,-1.897 1.921,-3.535 3.304,-4.917 1.383,-1.383 3.021,-2.486 4.917,-3.304 1.896,-0.821 3.92,-1.23 6.07,-1.23 2.152,0 4.173,0.409 6.071,1.23 1.894,0.818 3.535,1.921 4.918,3.304 1.383,1.382 2.482,3.02 3.303,4.917 0.819,1.895 1.23,3.919 1.23,6.07 z m -14.292,38.573 c 2.867,0 5.48,-0.538 7.837,-1.614 2.357,-1.076 4.381,-2.535 6.07,-4.38 1.692,-1.844 3.021,-4.022 3.996,-6.53 0.973,-2.512 1.46,-5.202 1.46,-8.069 V 0 -18.134 -37.958 H 0 v 6.301 c -1.948,-2.152 -4.252,-3.868 -6.916,-5.148 -2.665,-1.28 -5.532,-1.921 -8.606,-1.921 -2.87,0 -5.558,0.538 -8.067,1.613 -2.512,1.076 -4.687,2.536 -6.531,4.38 -1.844,1.844 -3.305,4.02 -4.381,6.532 -1.075,2.508 -1.613,5.198 -1.613,8.067 v 4.303 c 0,6.352 3.892,10.961 11.679,13.831 0.922,0.408 2.482,1.023 4.688,1.844 2.201,0.819 4.557,1.715 7.069,2.689 2.509,0.973 4.941,1.895 7.299,2.767 C -3.024,8.169 -1.23,8.861 0,9.374 v 8.606 c 0,4.303 -1.307,7.965 -3.918,10.988 -2.613,3.02 -6.071,4.533 -10.374,4.533 -2.152,0 -4.15,-0.41 -5.994,-1.229 -1.843,-0.821 -3.483,-1.92 -4.918,-3.304 -1.435,-1.383 -2.561,-3.023 -3.379,-4.918 -0.821,-1.897 -1.23,-3.918 -1.23,-6.07 h -5.071 c 0,2.867 0.537,5.557 1.613,8.069 1.076,2.508 2.536,4.686 4.379,6.53 1.844,1.845 4.021,3.304 6.532,4.38 2.509,1.076 5.199,1.614 8.068,1.614"
             style="fill:#1d1819;fill-opacity:1;fill-rule:nonzero;stroke:none"
             id="path32" /></g><g
           id="g34"
           transform="translate(1024.2606,1023.9239)"><path
             d="m 0,0 c 2.253,-1.129 4.534,-2.332 6.838,-3.612 2.307,-1.282 4.381,-2.742 6.225,-4.379 1.844,-1.641 3.355,-3.458 4.534,-5.456 1.176,-1.998 1.767,-4.329 1.767,-6.992 0,-2.87 -0.539,-5.559 -1.614,-8.068 -1.076,-2.512 -2.536,-4.688 -4.38,-6.531 -1.844,-1.844 -4.022,-3.304 -6.532,-4.38 -2.51,-1.076 -5.2,-1.614 -8.067,-1.614 -2.869,0 -5.559,0.538 -8.068,1.614 -2.511,1.076 -4.687,2.536 -6.532,4.38 -1.843,1.843 -3.303,4.019 -4.379,6.531 -1.076,2.509 -1.613,5.198 -1.613,8.068 h 5.071 c 0,-2.152 0.409,-4.176 1.23,-6.071 0.818,-1.896 1.92,-3.534 3.303,-4.917 1.383,-1.383 3.021,-2.486 4.918,-3.304 1.894,-0.821 3.918,-1.229 6.07,-1.229 2.151,0 4.174,0.408 6.071,1.229 1.894,0.818 3.533,1.921 4.916,3.304 1.383,1.383 2.484,3.021 3.305,4.917 0.818,1.895 1.229,3.919 1.229,6.071 0,1.844 -0.461,3.508 -1.383,4.994 -0.922,1.484 -2.151,2.843 -3.688,4.072 -1.537,1.23 -3.304,2.383 -5.301,3.458 -1.998,1.076 -4.072,2.176 -6.225,3.304 -2.358,1.126 -4.687,2.33 -6.992,3.612 -2.305,1.28 -4.379,2.713 -6.223,4.303 -1.846,1.586 -3.358,3.381 -4.534,5.378 -1.179,1.998 -1.767,4.327 -1.767,6.992 0,2.868 0.537,5.557 1.613,8.069 1.076,2.508 2.536,4.687 4.379,6.531 1.845,1.844 4.021,3.303 6.532,4.38 2.509,1.075 5.199,1.613 8.068,1.613 2.867,0 5.557,-0.538 8.067,-1.613 2.51,-1.077 4.688,-2.536 6.532,-4.38 1.844,-1.844 3.304,-4.023 4.38,-6.531 1.075,-2.512 1.614,-5.201 1.614,-8.069 h -5.072 c 0,2.152 -0.411,4.174 -1.229,6.071 -0.821,1.894 -1.922,3.534 -3.305,4.917 -1.383,1.384 -3.022,2.483 -4.916,3.305 -1.897,0.818 -3.92,1.228 -6.071,1.228 -2.152,0 -4.176,-0.41 -6.07,-1.228 -1.897,-0.822 -3.535,-1.921 -4.918,-3.305 -1.383,-1.383 -2.485,-3.023 -3.303,-4.917 -0.821,-1.897 -1.23,-3.919 -1.23,-6.071 0,-1.843 0.46,-3.51 1.382,-4.994 0.922,-1.486 2.177,-2.843 3.766,-4.072 1.587,-1.23 3.381,-2.382 5.379,-3.458 C -4.225,2.074 -2.15,1.023 0,0"
             style="fill:#1d1819;fill-opacity:1;fill-rule:nonzero;stroke:none"
             id="path36" /></g><g
           id="g38"
           transform="translate(1110.1678,1059.4224)"><path
             d="m 0,0 v -37.804 -18.134 -19.824 h -5.072 v 6.3 c -1.947,-2.151 -4.253,-3.868 -6.915,-5.147 -2.665,-1.28 -5.533,-1.921 -8.606,-1.921 -2.869,0 -5.559,0.538 -8.068,1.613 -2.511,1.076 -4.688,2.536 -6.532,4.38 -1.844,1.844 -3.303,4.02 -4.379,6.531 -1.076,2.509 -1.613,5.199 -1.613,8.068 V -37.804 0 h 5.07 v -37.804 -18.134 c 0,-2.151 0.409,-4.175 1.231,-6.07 0.818,-1.897 1.92,-3.535 3.303,-4.917 1.383,-1.383 3.02,-2.486 4.918,-3.304 1.894,-0.821 3.918,-1.23 6.07,-1.23 2.151,0 4.174,0.409 6.071,1.23 1.894,0.818 3.533,1.921 4.917,3.304 1.382,1.382 2.483,3.02 3.304,4.917 0.818,1.895 1.229,3.919 1.229,6.07 V -37.804 0 Z"
             style="fill:#1d1819;fill-opacity:1;fill-rule:nonzero;stroke:none"
             id="path40" /></g><g
           id="g42"
           transform="translate(1167.9491,1060.1909)"><path
             d="m 0,0 v -5.072 h -5.994 c -2.151,0 -4.149,-0.41 -5.992,-1.228 -1.845,-0.822 -3.485,-1.921 -4.919,-3.305 -1.436,-1.383 -2.562,-3.023 -3.381,-4.917 -0.821,-1.897 -1.228,-3.919 -1.228,-6.071 v -17.98 -37.957 h -5.072 v 37.957 17.98 14.754 h -5.071 v 5.07 h 5.071 5.072 v -5.07 -1.23 c 3.892,4.507 8.912,6.863 15.059,7.069 z"
             style="fill:#1d1819;fill-opacity:1;fill-rule:nonzero;stroke:none"
             id="path44" /></g><g
           id="g46"
           transform="translate(1207.7513,1055.1194)"><path
             d="m 0,0 c -2.15,0 -4.174,-0.411 -6.07,-1.229 -1.896,-0.821 -3.534,-1.921 -4.917,-3.304 -1.383,-1.383 -2.485,-3.023 -3.305,-4.918 -0.821,-1.897 -1.228,-3.919 -1.228,-6.07 v -17.673 c 1.536,0.615 3.431,1.357 5.686,2.229 2.251,0.869 4.507,1.714 6.762,2.535 2.251,0.819 4.325,1.588 6.223,2.305 1.894,0.716 3.251,1.229 4.072,1.537 1.844,0.716 3.69,1.791 5.533,3.228 1.844,1.433 2.766,3.431 2.766,5.993 0,2.151 -0.411,4.149 -1.23,5.993 -0.821,1.844 -1.92,3.458 -3.303,4.841 C 9.606,-3.15 7.965,-2.05 6.071,-1.229 4.173,-0.411 2.152,0 0,0 m 8.915,-29.352 c -0.923,-0.307 -2.46,-0.898 -4.612,-1.767 -2.151,-0.872 -4.483,-1.767 -6.992,-2.689 -2.511,-0.923 -4.944,-1.845 -7.299,-2.767 -2.359,-0.922 -4.203,-1.589 -5.532,-1.998 v -13.062 c 0,-2.151 0.407,-4.175 1.228,-6.07 0.82,-1.897 1.922,-3.535 3.305,-4.917 1.383,-1.383 3.021,-2.486 4.917,-3.304 1.896,-0.821 3.92,-1.23 6.07,-1.23 2.152,0 4.173,0.409 6.071,1.23 1.894,0.818 3.535,1.921 4.918,3.304 1.383,1.382 2.482,3.02 3.303,4.917 0.819,1.895 1.23,3.919 1.23,6.07 h 5.071 c 0,-2.869 -0.537,-5.559 -1.614,-8.068 -1.076,-2.511 -2.535,-4.687 -4.379,-6.531 -1.844,-1.844 -4.022,-3.304 -6.531,-4.38 -2.513,-1.075 -5.201,-1.613 -8.069,-1.613 -2.87,0 -5.558,0.538 -8.067,1.613 -2.512,1.076 -4.687,2.536 -6.531,4.38 -1.844,1.844 -3.305,4.02 -4.381,6.531 -1.075,2.509 -1.613,5.199 -1.613,8.068 v 36.114 c 0,2.867 0.538,5.557 1.613,8.068 1.076,2.509 2.537,4.687 4.381,6.531 1.844,1.845 4.019,3.304 6.531,4.38 2.509,1.075 5.197,1.614 8.067,1.614 2.868,0 5.556,-0.539 8.069,-1.614 2.509,-1.076 4.687,-2.535 6.531,-4.38 1.844,-1.844 3.303,-4.022 4.379,-6.531 1.077,-2.511 1.614,-5.148 1.614,-7.914 v -0.154 c 0,-6.354 -3.894,-10.963 -11.678,-13.831"
             style="fill:#1d1819;fill-opacity:1;fill-rule:nonzero;stroke:none"
             id="path48" /></g><g
           id="g50"
           transform="translate(1315.9393,987.9634)"><path
             d="m 0,0 c 2.355,0 4.558,0.461 6.607,1.383 2.049,0.922 3.842,2.151 5.379,3.689 1.537,1.536 2.767,3.354 3.69,5.455 0.922,2.099 1.383,4.326 1.383,6.685 h 5.071 c 0,-3.074 -0.591,-5.97 -1.768,-8.683 C 19.184,5.813 17.596,3.457 15.598,1.46 13.6,-0.538 11.27,-2.128 8.605,-3.305 5.94,-4.481 3.074,-5.071 0,-5.071 c -3.072,0 -5.97,0.59 -8.683,1.766 -2.714,1.177 -5.072,2.767 -7.068,4.765 -1.998,1.997 -3.589,4.353 -4.764,7.069 -1.179,2.713 -1.767,5.609 -1.767,8.683 v 60.702 c 0,3.073 0.588,5.967 1.767,8.682 1.175,2.714 2.766,5.071 4.764,7.069 1.996,1.998 4.354,3.585 7.068,4.764 2.713,1.177 5.611,1.768 8.683,1.768 3.074,0 5.94,-0.574 8.605,-1.717 2.665,-1.143 4.995,-2.706 6.993,-4.687 1.998,-1.981 3.586,-4.33 4.764,-7.043 1.177,-2.716 1.768,-5.609 1.768,-8.683 h -5.071 c 0,2.356 -0.461,4.557 -1.383,6.608 -0.923,2.049 -2.153,3.842 -3.69,5.379 -1.537,1.537 -3.33,2.766 -5.379,3.688 -2.049,0.922 -4.252,1.384 -6.607,1.384 -2.358,0 -4.585,-0.464 -6.685,-1.386 -2.101,-0.925 -3.919,-2.156 -5.455,-3.696 -1.537,-1.538 -2.767,-3.335 -3.689,-5.386 -0.922,-2.053 -1.383,-4.259 -1.383,-6.617 v -60.8 c 0,-2.363 0.461,-4.594 1.383,-6.697 0.922,-2.104 2.152,-3.926 3.689,-5.466 1.536,-1.539 3.354,-2.771 5.455,-3.693 C -4.585,0.461 -2.358,0 0,0"
             style="fill:#1d1819;fill-opacity:1;fill-rule:nonzero;stroke:none"
             id="path52" /></g><g
           id="g54"
           transform="translate(1384.786,1055.1194)"><path
             d="m 0,0 c -2.152,0 -4.177,-0.411 -6.071,-1.229 -1.897,-0.821 -3.535,-1.921 -4.918,-3.304 -1.383,-1.383 -2.485,-3.023 -3.303,-4.918 -0.821,-1.897 -1.23,-3.919 -1.23,-6.07 v -36.114 c 0,-2.151 0.409,-4.175 1.23,-6.07 0.818,-1.897 1.92,-3.535 3.303,-4.917 1.383,-1.383 3.021,-2.486 4.918,-3.304 1.894,-0.821 3.919,-1.23 6.071,-1.23 2.15,0 4.173,0.409 6.07,1.23 1.894,0.818 3.534,1.921 4.916,3.304 1.383,1.382 2.484,3.02 3.305,4.917 0.818,1.895 1.229,3.919 1.229,6.07 v 36.114 c 0,2.151 -0.411,4.173 -1.229,6.07 -0.821,1.895 -1.922,3.535 -3.305,4.918 C 9.604,-3.15 7.964,-2.05 6.07,-1.229 4.173,-0.411 2.15,0 0,0 m 0,-72.227 c -2.87,0 -5.56,0.538 -8.069,1.613 -2.511,1.076 -4.688,2.536 -6.532,4.38 -1.843,1.844 -3.302,4.02 -4.378,6.531 -1.077,2.509 -1.614,5.199 -1.614,8.068 v 36.114 c 0,2.867 0.537,5.557 1.614,8.068 1.076,2.509 2.535,4.687 4.378,6.531 1.844,1.845 4.021,3.304 6.532,4.38 2.509,1.075 5.199,1.614 8.069,1.614 2.866,0 5.556,-0.539 8.066,-1.614 2.51,-1.076 4.688,-2.535 6.532,-4.38 1.844,-1.844 3.304,-4.022 4.381,-6.531 1.075,-2.511 1.613,-5.201 1.613,-8.068 v -36.114 c 0,-2.869 -0.538,-5.559 -1.613,-8.068 -1.077,-2.511 -2.537,-4.687 -4.381,-6.531 -1.844,-1.844 -4.022,-3.304 -6.532,-4.38 -2.51,-1.075 -5.2,-1.613 -8.066,-1.613"
             style="fill:#1d1819;fill-opacity:1;fill-rule:nonzero;stroke:none"
             id="path56" /></g><g
           id="g58"
           transform="translate(1467.6151,1021.6182)"><path
             d="M 0,0 V 3.842 C -1.535,3.227 -3.433,2.509 -5.686,1.69 -7.94,0.869 -10.194,0.024 -12.447,-0.845 c -2.255,-0.872 -4.303,-1.667 -6.148,-2.382 -1.843,-0.718 -3.176,-1.229 -3.994,-1.537 -1.947,-0.718 -3.842,-1.793 -5.687,-3.227 -1.844,-1.436 -2.766,-3.381 -2.766,-5.84 v -4.303 c 0,-2.151 0.409,-4.175 1.23,-6.07 0.819,-1.897 1.92,-3.535 3.303,-4.917 1.383,-1.383 3.021,-2.486 4.918,-3.304 1.895,-0.821 3.919,-1.23 6.07,-1.23 2.152,0 4.174,0.409 6.072,1.23 1.893,0.818 3.533,1.921 4.916,3.304 1.383,1.382 2.483,3.02 3.304,4.917 0.819,1.895 1.229,3.919 1.229,6.07 z m -14.291,38.573 c 2.868,0 5.479,-0.538 7.838,-1.614 2.354,-1.076 4.379,-2.535 6.07,-4.38 1.69,-1.844 3.021,-4.022 3.994,-6.53 0.973,-2.512 1.461,-5.202 1.461,-8.069 V 0 -18.134 -37.958 H 0 v 6.301 c -1.946,-2.152 -4.252,-3.868 -6.914,-5.148 -2.665,-1.28 -5.533,-1.921 -8.607,-1.921 -2.869,0 -5.558,0.538 -8.068,1.613 -2.511,1.076 -4.687,2.536 -6.531,4.38 -1.844,1.844 -3.303,4.02 -4.379,6.532 -1.076,2.508 -1.613,5.198 -1.613,8.067 v 4.303 c 0,6.352 3.891,10.961 11.677,13.831 0.922,0.408 2.484,1.023 4.688,1.844 2.203,0.819 4.559,1.715 7.069,2.689 2.509,0.973 4.943,1.895 7.301,2.767 2.355,0.869 4.148,1.561 5.377,2.074 v 8.606 c 0,4.303 -1.305,7.965 -3.918,10.988 -2.611,3.02 -6.07,4.533 -10.373,4.533 -2.151,0 -4.149,-0.41 -5.993,-1.229 -1.844,-0.821 -3.485,-1.92 -4.918,-3.304 -1.437,-1.383 -2.563,-3.023 -3.381,-4.918 -0.821,-1.897 -1.229,-3.918 -1.229,-6.07 h -5.072 c 0,2.867 0.539,5.557 1.613,8.069 1.077,2.508 2.538,4.686 4.381,6.53 1.844,1.845 4.019,3.304 6.532,4.38 2.507,1.076 5.197,1.614 8.067,1.614"
             style="fill:#1d1819;fill-opacity:1;fill-rule:nonzero;stroke:none"
             id="path60" /></g><g
           id="g62"
           transform="translate(1520.6346,1023.9239)"><path
             d="m 0,0 c 2.251,-1.129 4.533,-2.332 6.838,-3.612 2.305,-1.282 4.38,-2.742 6.224,-4.379 1.844,-1.641 3.354,-3.458 4.533,-5.456 1.176,-1.998 1.767,-4.329 1.767,-6.992 0,-2.87 -0.537,-5.559 -1.613,-8.068 -1.076,-2.512 -2.535,-4.688 -4.38,-6.531 -1.844,-1.844 -4.021,-3.304 -6.531,-4.38 -2.512,-1.076 -5.2,-1.614 -8.068,-1.614 -2.87,0 -5.558,0.538 -8.067,1.614 -2.513,1.076 -4.688,2.536 -6.532,4.38 -1.844,1.843 -3.305,4.019 -4.381,6.531 -1.074,2.509 -1.613,5.198 -1.613,8.068 h 5.072 c 0,-2.152 0.408,-4.176 1.23,-6.071 0.819,-1.896 1.92,-3.534 3.303,-4.917 1.384,-1.383 3.022,-2.486 4.917,-3.304 1.896,-0.821 3.92,-1.229 6.071,-1.229 2.152,0 4.172,0.408 6.07,1.229 1.894,0.818 3.535,1.921 4.918,3.304 1.383,1.383 2.482,3.021 3.304,4.917 0.819,1.895 1.23,3.919 1.23,6.071 0,1.844 -0.461,3.508 -1.384,4.994 -0.922,1.484 -2.151,2.843 -3.688,4.072 -1.536,1.23 -3.304,2.383 -5.302,3.458 -1.998,1.076 -4.072,2.176 -6.223,3.304 -2.358,1.126 -4.687,2.33 -6.992,3.612 -2.307,1.28 -4.381,2.713 -6.224,4.303 -1.845,1.586 -3.358,3.381 -4.535,5.378 -1.177,1.998 -1.767,4.327 -1.767,6.992 0,2.868 0.539,5.557 1.613,8.069 1.076,2.508 2.537,4.687 4.381,6.531 1.844,1.844 4.019,3.303 6.532,4.38 2.509,1.075 5.197,1.613 8.067,1.613 2.868,0 5.556,-0.538 8.068,-1.613 2.51,-1.077 4.687,-2.536 6.531,-4.38 1.845,-1.844 3.304,-4.023 4.38,-6.531 1.076,-2.512 1.613,-5.201 1.613,-8.069 h -5.07 c 0,2.152 -0.411,4.174 -1.23,6.071 -0.822,1.894 -1.921,3.534 -3.304,4.917 -1.383,1.384 -3.024,2.483 -4.918,3.305 -1.898,0.818 -3.918,1.228 -6.07,1.228 -2.151,0 -4.175,-0.41 -6.071,-1.228 -1.895,-0.822 -3.533,-1.921 -4.917,-3.305 -1.383,-1.383 -2.484,-3.023 -3.303,-4.917 -0.822,-1.897 -1.23,-3.919 -1.23,-6.071 0,-1.843 0.461,-3.51 1.383,-4.994 0.922,-1.486 2.176,-2.843 3.764,-4.072 1.587,-1.23 3.381,-2.382 5.379,-3.458 C -4.227,2.074 -2.152,1.023 0,0"
             style="fill:#1d1819;fill-opacity:1;fill-rule:nonzero;stroke:none"
             id="path64" /></g><g
           id="g66"
           transform="translate(1570.4266,1021.6182)"><path
             d="m 0,0 v -18.134 c 0,-2.151 0.357,-4.175 1.075,-6.07 0.716,-1.897 1.692,-3.535 2.92,-4.917 1.231,-1.383 2.663,-2.486 4.303,-3.304 1.638,-0.821 3.381,-1.23 5.224,-1.23 v -5.071 c -2.56,0 -4.969,0.538 -7.22,1.613 -2.257,1.076 -4.227,2.536 -5.918,4.38 -1.691,1.844 -3.023,4.02 -3.995,6.532 -0.975,2.508 -1.461,5.198 -1.461,8.067 V 0 32.733 37.804 59.319 H 0 V 37.804 H 16.597 V 32.733 H 0 Z"
             style="fill:#1d1819;fill-opacity:1;fill-rule:nonzero;stroke:none"
             id="path68" /></g><g
           id="g70"
           transform="translate(876.1068,919.0247)"><path
             d="m 0,0 v 35.61 l 3.172,0.356 V 3.122 h 12.64 L 14.721,0 Z"
             style="fill:#1d1819;fill-opacity:1;fill-rule:nonzero;stroke:none"
             id="path72" /></g><g
           id="g74"
           transform="translate(931.0463,918.6187)"><path
             d="m 0,0 v 26.295 l 2.97,0.356 V 0.406 Z M -0.736,34.442 1.447,37.107 3.68,34.722 1.447,32.056 Z"
             style="fill:#1d1819;fill-opacity:1;fill-rule:nonzero;stroke:none"
             id="path76" /></g><g
           id="g78"
           transform="translate(978.0179,929.7354)"><path
             d="m 0,0 17.108,10.178 c -0.728,0.897 -1.647,1.574 -2.755,2.031 -1.108,0.456 -2.373,0.685 -3.793,0.685 -2.98,0 -5.5,-1.024 -7.565,-3.071 C 0.931,7.775 -0.101,5.262 -0.101,2.284 -0.101,1.811 -0.093,1.4 -0.076,1.054 -0.06,0.707 -0.034,0.356 0,0 m 20.838,-7.64 c -1.709,-1.269 -3.401,-2.204 -5.076,-2.804 -1.675,-0.601 -3.41,-0.901 -5.202,-0.901 -3.945,0 -7.219,1.298 -9.824,3.895 -2.606,2.598 -3.908,5.826 -3.908,9.684 0,3.858 1.311,7.072 3.934,9.645 2.622,2.571 5.888,3.858 9.798,3.858 2.469,0 4.631,-0.533 6.484,-1.6 1.853,-1.065 3.295,-2.605 4.327,-4.618 L 1.041,-2.487 c 0.965,-1.862 2.276,-3.3 3.934,-4.315 1.659,-1.015 3.52,-1.523 5.585,-1.523 1.641,0 3.265,0.343 4.872,1.028 1.607,0.685 3.41,1.815 5.406,3.389 z"
             style="fill:#1d1819;fill-opacity:1;fill-rule:nonzero;stroke:none"
             id="path80" /></g><g
           id="g82"
           transform="translate(1039.1517,918.669)"><path
             d="m 0,0 v 26.245 l 2.918,0.356 v -4.417 c 1.101,1.59 2.353,2.779 3.757,3.566 1.404,0.786 2.978,1.18 4.721,1.18 2.86,0 5.081,-0.871 6.663,-2.615 1.583,-1.742 2.373,-4.204 2.373,-7.385 V 0.356 L 17.59,0 v 15.483 c 0,2.995 -0.58,5.242 -1.738,6.739 -1.161,1.497 -2.892,2.246 -5.192,2.246 -2.082,0 -3.892,-0.774 -5.431,-2.322 C 3.689,20.597 2.918,18.723 2.918,16.524 V 0.356 Z"
             style="fill:#1d1819;fill-opacity:1;fill-rule:nonzero;stroke:none"
             id="path84" /></g><g
           id="g86"
           transform="translate(1152.9169,926.5125)"><path
             d="m 0,0 c 1.065,-1.71 2.314,-2.996 3.744,-3.858 1.429,-0.863 3.041,-1.294 4.834,-1.294 2.302,0 4.201,0.659 5.7,1.979 1.497,1.32 2.245,2.987 2.245,5 0,3.35 -2.842,5.88 -8.528,7.589 -0.592,0.169 -1.041,0.305 -1.345,0.406 -2.911,0.88 -5.043,2.077 -6.397,3.592 -1.354,1.514 -2.03,3.456 -2.03,5.825 0,2.691 1.01,4.966 3.033,6.827 2.022,1.861 4.564,2.793 7.627,2.793 1.878,0 3.571,-0.331 5.077,-0.99 1.505,-0.661 3.019,-1.735 4.543,-3.224 l -2.081,-2.411 c -1.37,1.303 -2.652,2.229 -3.846,2.779 -1.192,0.55 -2.492,0.825 -3.896,0.825 -1.996,0 -3.692,-0.647 -5.089,-1.942 -1.396,-1.294 -2.094,-2.864 -2.094,-4.708 0,-1.151 0.271,-2.157 0.812,-3.021 0.542,-0.862 1.362,-1.59 2.462,-2.182 0.829,-0.457 2.319,-0.999 4.468,-1.624 1.184,-0.339 2.09,-0.61 2.716,-0.812 2.622,-0.898 4.594,-2.133 5.913,-3.706 1.32,-1.574 1.98,-3.478 1.98,-5.711 0,-2.944 -1.066,-5.406 -3.198,-7.386 -2.133,-1.98 -4.839,-2.97 -8.122,-2.97 -2.267,0 -4.361,0.55 -6.281,1.65 -1.922,1.099 -3.525,2.665 -4.81,4.696 z"
             style="fill:#1d1819;fill-opacity:1;fill-rule:nonzero;stroke:none"
             id="path88" /></g><g
           id="g90"
           transform="translate(1215.4452,929.7354)"><path
             d="m 0,0 17.108,10.178 c -0.728,0.897 -1.647,1.574 -2.755,2.031 -1.108,0.456 -2.372,0.685 -3.793,0.685 -2.98,0 -5.5,-1.024 -7.565,-3.071 C 0.931,7.775 -0.101,5.262 -0.101,2.284 -0.101,1.811 -0.093,1.4 -0.076,1.054 -0.06,0.707 -0.033,0.356 0,0 m 20.838,-7.64 c -1.709,-1.269 -3.401,-2.204 -5.076,-2.804 -1.675,-0.601 -3.41,-0.901 -5.202,-0.901 -3.944,0 -7.219,1.298 -9.824,3.895 -2.606,2.598 -3.908,5.826 -3.908,9.684 0,3.858 1.312,7.072 3.934,9.645 2.622,2.571 5.888,3.858 9.798,3.858 2.469,0 4.631,-0.533 6.484,-1.6 1.853,-1.065 3.295,-2.605 4.327,-4.618 L 1.041,-2.487 c 0.965,-1.862 2.276,-3.3 3.934,-4.315 1.659,-1.015 3.52,-1.523 5.585,-1.523 1.641,0 3.265,0.343 4.872,1.028 1.607,0.685 3.41,1.815 5.406,3.389 z"
             style="fill:#1d1819;fill-opacity:1;fill-rule:nonzero;stroke:none"
             id="path92" /></g><g
           id="g94"
           transform="translate(1278.1024,927.9083)"><path
             d="m 0,0 c 0,-1.913 0.647,-3.507 1.941,-4.784 1.294,-1.278 2.931,-1.917 4.911,-1.917 1.979,0 3.575,0.618 4.785,1.853 1.209,1.235 1.815,2.851 1.815,4.848 0,1.98 -0.606,3.592 -1.815,4.835 C 10.427,6.079 8.849,6.701 6.903,6.701 4.889,6.701 3.235,6.066 1.941,4.797 0.647,3.528 0,1.929 0,0 m 13.452,-6.295 c -0.931,-1.066 -1.979,-1.87 -3.147,-2.411 -1.168,-0.542 -2.437,-0.812 -3.807,-0.812 -2.641,0 -4.887,0.926 -6.739,2.779 -1.854,1.853 -2.78,4.099 -2.78,6.739 0,2.622 0.931,4.865 2.792,6.726 1.861,1.861 4.103,2.792 6.727,2.792 1.318,0 2.579,-0.258 3.78,-0.774 1.201,-0.517 2.259,-1.265 3.174,-2.246 v 3.274 c 0,1.793 -0.453,3.118 -1.358,3.972 -0.906,0.854 -2.306,1.282 -4.201,1.282 -1.116,0 -2.327,-0.161 -3.63,-0.483 -1.302,-0.321 -2.791,-0.837 -4.466,-1.548 l 1.141,3.376 c 1.269,0.44 2.513,0.77 3.731,0.99 1.22,0.219 2.394,0.33 3.529,0.33 2.825,0 4.894,-0.66 6.205,-1.98 1.311,-1.32 1.967,-3.401 1.967,-6.243 V -8.884 l -2.918,-0.634 z"
             style="fill:#1d1819;fill-opacity:1;fill-rule:nonzero;stroke:none"
             id="path96" /></g><g
           id="g98"
           transform="translate(1336.2147,918.669)"><path
             d="m 0,0 v 26.245 l 2.895,0.356 v -5.61 c 1.048,2.03 2.331,3.553 3.844,4.569 1.515,1.014 3.272,1.522 5.268,1.522 h 0.71 L 11.524,24.214 C 8.58,23.926 6.405,22.64 5.001,20.356 3.597,18.072 2.895,14.662 2.895,10.128 V 0.356 Z"
             style="fill:#1d1819;fill-opacity:1;fill-rule:nonzero;stroke:none"
             id="path100" /></g><g
           id="g102"
           transform="translate(1408.9237,921.563)"><path
             d="m 0,0 c -1.457,-1.016 -3.017,-1.798 -4.684,-2.348 -1.667,-0.55 -3.329,-0.825 -4.986,-0.825 -3.893,0 -7.154,1.303 -9.786,3.909 -2.631,2.605 -3.945,5.829 -3.945,9.67 0,3.858 1.31,7.073 3.933,9.646 2.622,2.571 5.889,3.857 9.798,3.857 1.844,0 3.53,-0.237 5.063,-0.711 1.531,-0.474 3.016,-1.218 4.454,-2.233 L -2.082,18.63 c -1.286,0.863 -2.534,1.493 -3.743,1.891 -1.21,0.397 -2.492,0.596 -3.845,0.596 -2.963,0 -5.497,-1.049 -7.603,-3.148 -2.107,-2.098 -3.16,-4.618 -3.16,-7.563 0,-2.944 1.053,-5.466 3.16,-7.564 2.106,-2.098 4.64,-3.146 7.603,-3.146 1.251,0 2.541,0.228 3.869,0.685 1.328,0.456 2.619,1.116 3.871,1.98 z"
             style="fill:#1d1819;fill-opacity:1;fill-rule:nonzero;stroke:none"
             id="path104" /></g><g
           id="g106"
           transform="translate(1449.3466,918.669)"><path
             d="m 0,0 v 36.702 l 2.919,0.355 V 22.184 c 1.101,1.59 2.352,2.779 3.756,3.566 1.404,0.786 2.978,1.18 4.721,1.18 2.861,0 5.082,-0.871 6.663,-2.615 1.583,-1.742 2.374,-4.204 2.374,-7.385 V 0.356 L 17.59,0 v 15.483 c 0,2.995 -0.579,5.242 -1.738,6.739 -1.161,1.497 -2.891,2.246 -5.192,2.246 -2.082,0 -3.891,-0.774 -5.431,-2.322 -1.54,-1.549 -2.31,-3.423 -2.31,-5.622 V 0.356 Z"
             style="fill:#1d1819;fill-opacity:1;fill-rule:nonzero;stroke:none"
             id="path108" /></g><path
           d="m 1587.023,932.624 h -96.208 v 1.083 h 96.208 z"
           style="fill:#1d1819;fill-opacity:1;fill-rule:nonzero;stroke:none"
           id="path110" /><path
           d="m 855.071,932.624 h -96.208 v 1.083 h 96.208 z"
           style="fill:#1d1819;fill-opacity:1;fill-rule:nonzero;stroke:none"
           id="path112" /><g
           id="g114"
           transform="translate(631.9286,997.7767)"><path
             d="m 0,0 0.015,-0.058 c 0.16,-0.657 1.578,-6.75 1.577,-15.373 0,-6.377 -0.775,-14.132 -3.379,-22.108 -2.605,-7.978 -7.027,-16.172 -14.355,-23.502 -4.496,-4.499 -10.606,-8.584 -17.278,-11.518 -6.672,-2.937 -13.906,-4.723 -20.625,-4.72 -7.358,0.007 -14.03,2.104 -18.973,7.044 -0.128,0.121 -0.457,0.548 -0.844,1.154 -1.393,2.15 -3.746,6.519 -7.168,11.751 -3.428,5.24 -7.954,11.384 -13.809,17.24 -16.627,16.617 -34.287,17.746 -34.492,17.76 l -4.28,0.265 3.174,-2.885 c 14.868,-13.519 20.002,-28.425 24.072,-41.461 2.034,-6.514 3.781,-12.553 6.407,-17.694 2.615,-5.132 6.208,-9.4 11.776,-11.994 l 1.277,2.73 c -4.855,2.281 -7.917,5.868 -10.37,10.637 -3.67,7.14 -5.707,16.869 -9.653,27.453 -3.95,10.582 -9.889,22.035 -21.482,32.56 l -1.013,-1.115 -0.094,-1.505 0.029,-0.002 c 0.823,-0.061 17.134,-1.489 32.517,-16.881 6.469,-6.467 11.299,-13.345 14.792,-18.9 1.748,-2.778 3.161,-5.223 4.289,-7.136 0.565,-0.957 1.058,-1.781 1.497,-2.46 0.445,-0.681 0.809,-1.206 1.243,-1.648 5.628,-5.631 13.195,-7.934 21.105,-7.927 7.25,0.002 14.846,1.901 21.838,4.976 6.992,3.079 13.382,7.333 18.196,12.144 7.699,7.698 12.365,16.344 15.09,24.698 2.727,8.357 3.526,16.425 3.527,23.044 C 4.605,-5.882 2.942,0.659 2.921,0.745 Z"
             style="fill:#bf9d4f;fill-opacity:1;fill-rule:nonzero;stroke:none"
             id="path116" /></g><g
           id="g118"
           transform="translate(626.9052,901.4549)"><path
             d="m 0,0 c -24.195,-7.271 -47.904,-7.561 -51.333,-7.557 -0.288,0.001 -0.431,0.001 -0.432,0.001 l -0.354,0.003 -0.317,-0.155 c -9.253,-4.497 -14.032,-9.247 -18.02,-14.437 -3.999,-5.193 -7.254,-10.723 -13.876,-17.343 -17.734,-17.719 -34.641,-19.943 -42.231,-19.957 -1.348,0 -2.399,0.072 -3.104,0.142 -0.353,0.036 -0.618,0.07 -0.791,0.095 l -0.188,0.029 -0.041,0.007 -0.004,10e-4 -0.276,-1.482 0.715,-1.326 c 17.626,9.484 25.951,23.214 30.841,36.224 2.454,6.506 4.077,12.847 5.621,18.429 1.539,5.582 3.022,10.404 5.053,13.823 l -2.594,1.534 c -2.311,-3.918 -3.803,-8.93 -5.364,-14.553 -2.329,-8.433 -4.771,-18.247 -9.78,-27.629 -5.015,-9.383 -12.544,-18.341 -25.208,-25.176 l -3.756,-2.023 4.195,-0.784 c 0.078,-0.015 1.77,-0.324 4.681,-0.324 8.173,-0.014 26.032,2.493 44.362,20.838 6.87,6.871 10.292,12.664 14.132,17.633 3.849,4.971 8.069,9.221 16.954,13.57 l -0.66,1.354 -0.012,-1.507 c 0.004,0 0.159,-10e-4 0.454,-10e-4 3.596,0.004 27.515,0.277 52.2,7.685 z"
             style="fill:#bf9d4f;fill-opacity:1;fill-rule:nonzero;stroke:none"
             id="path120" /></g><g
           id="g122"
           transform="translate(550.368,1051.531)"><path
             d="m 0,0 c -1.054,-1.052 -2.075,-1.75 -3.067,-2.189 -0.994,-0.438 -1.963,-0.628 -2.968,-0.63 -1.517,-10e-4 -3.134,0.454 -4.837,1.27 -2.551,1.218 -5.245,3.238 -7.946,5.412 -2.706,2.173 -5.422,4.492 -8.154,6.302 -4.835,3.197 -9.536,4.728 -13.213,5.7 v -3.124 c 3.387,-0.939 7.411,-2.356 11.55,-5.091 3.352,-2.212 6.971,-5.508 10.708,-8.301 1.872,-1.397 3.781,-2.671 5.753,-3.617 1.969,-0.942 4.019,-1.564 6.139,-1.565 1.396,-10e-4 2.814,0.277 4.189,0.888 1.377,0.61 2.706,1.542 3.977,2.814 z"
             style="fill:#bf9d4f;fill-opacity:1;fill-rule:nonzero;stroke:none"
             id="path124" /></g><g
           id="g126"
           transform="translate(522.5365,1078.675)"><path
             d="m 0,0 c -0.362,0.004 -0.739,0.007 -1.147,0.007 -2.984,0 -7.103,-0.124 -10.97,-0.685 l -0.236,-0.038 v -3.05 c 1.116,0.18 2.277,0.324 3.44,0.431 2.796,0.258 5.594,0.328 7.766,0.328 1.227,0 2.256,-0.022 2.975,-0.044 0.36,-0.012 0.642,-0.022 0.833,-0.03 0.191,-0.009 0.285,-0.014 0.286,-0.014 l 3.074,-0.164 -1.755,2.528 c -10.948,15.762 -28.988,27.216 -44.28,34.814 -15.297,7.589 -27.873,11.288 -27.927,11.305 l -0.851,-2.892 c 0.001,0 0.182,-0.054 0.545,-0.166 2.731,-0.847 15.357,-4.94 29.744,-12.393 C -24.957,22.931 -9.876,12.924 0,0"
             style="fill:#bf9d4f;fill-opacity:1;fill-rule:nonzero;stroke:none"
             id="path128" /></g><g
           id="g130"
           transform="translate(634.7601,998.8084)"><path
             d="m 0,0 -0.015,0.044 -0.156,0.205 c -2.124,2.775 -4.503,5.553 -7.141,8.342 h -1.897 v 1.955 l -0.029,0.03 h -1.285 l -1.481,-1.482 0.16,-0.16 c 3.473,-3.473 6.497,-6.908 9.127,-10.326 l 0.006,-0.019 0.158,-0.207 c 10.605,-13.803 14.682,-26.941 14.685,-38.275 0,-12.264 -4.789,-22.462 -11.444,-29.117 l 2.131,-2.132 c 7.226,7.226 12.327,18.191 12.327,31.249 C 15.149,-27.889 10.82,-14.156 0,0"
             style="fill:#bf9d4f;fill-opacity:1;fill-rule:nonzero;stroke:none"
             id="path132" /></g><g
           id="g134"
           transform="translate(644.1888,907.68)"><path
             d="m 0,0 c -3.892,-7.565 -9.732,-13.563 -14.605,-17.645 -1.739,-1.457 -3.349,-2.667 -4.703,-3.623 1.284,3.336 2.92,8.158 3.936,13.309 l -2.957,0.581 v 0.001 c -0.882,-4.488 -2.289,-8.798 -3.474,-11.972 -0.592,-1.587 -1.129,-2.891 -1.515,-3.795 -0.194,-0.451 -0.35,-0.803 -0.457,-1.04 l -0.121,-0.267 -0.04,-0.084 -2,-4.244 4.098,2.285 c 0.059,0.034 4.097,2.289 9.169,6.54 5.07,4.252 11.187,10.499 15.35,18.576 C 3.601,0.415 0.703,1.37 0,0"
             style="fill:#bf9d4f;fill-opacity:1;fill-rule:nonzero;stroke:none"
             id="path136" /></g><g
           id="g138"
           transform="translate(577.4857,1031.2649)"><path
             d="m 0,0 c 0.117,0.036 7.367,2.127 15.678,8.37 8.307,6.234 17.68,16.68 21.82,33.26 l -2.924,0.731 C 30.616,26.549 21.763,16.721 13.868,10.779 9.921,7.814 6.219,5.833 3.515,4.6 2.163,3.983 1.062,3.553 0.305,3.279 -0.073,3.143 -0.365,3.045 -0.559,2.982 L -0.774,2.915 -0.833,2.897 Z"
             style="fill:#bf9d4f;fill-opacity:1;fill-rule:nonzero;stroke:none"
             id="path140" /></g><g
           id="g142"
           transform="translate(623.0585,1009.3846)"><path
             d="m 0,0 v 0.917 c -1.61,-1.446 -3.28,-3.012 -4.961,-4.708 -4.261,-4.302 -8.539,-9.334 -11.782,-14.801 -3.091,-5.218 -5.234,-10.853 -5.426,-16.637 -0.863,1.031 -1.849,2.335 -2.823,3.901 -2.566,4.126 -5.041,10.016 -5.042,17.443 0.006,7.785 2.705,17.333 11.142,28.468 l 1.072,1.414 -1.568,0.829 c -9.821,5.204 -18.467,6.678 -26.352,7.999 l -0.004,0.001 c -5.7,0.931 -10.86,1.001 -15.857,2.541 -4.995,1.541 -9.957,4.462 -15.499,11.403 l -2.358,-1.877 c 5.807,-7.317 11.437,-10.727 16.975,-12.409 5.534,-1.684 10.844,-1.731 16.249,-2.633 l -0.004,0.001 c 7.447,-1.249 15.149,-2.573 23.883,-6.895 -7.929,-10.946 -10.697,-20.698 -10.693,-28.842 0,-8.372 2.89,-14.977 5.767,-19.462 2.88,-4.491 5.749,-6.895 5.831,-6.964 l 3.004,-2.508 -0.546,3.875 c -0.135,0.963 -0.2,1.928 -0.2,2.896 -0.004,5.316 1.976,10.752 5.042,15.919 4.389,7.412 10.967,14.189 16.643,19.228 V 0 Z"
             style="fill:#bf9d4f;fill-opacity:1;fill-rule:nonzero;stroke:none"
             id="path144" /></g><g
           id="g146"
           transform="translate(550.2416,1094.5046)"><path
             d="m 0,0 c 1.603,1.603 1.603,4.201 0,5.804 -1.22,1.221 -3.018,1.505 -4.513,0.866 0.33,0.58 0.711,1.136 1.206,1.631 2.982,2.982 7.816,2.982 10.798,0 2.982,-2.982 2.982,-7.817 0,-10.798 -2.982,-2.982 -7.816,-2.982 -10.798,0 -0.495,0.494 -0.876,1.051 -1.206,1.63 C -3.018,-1.505 -1.22,-1.221 0,0"
             style="fill:#bf9d4f;fill-opacity:1;fill-rule:nonzero;stroke:none"
             id="path148" /></g><g
           id="g150"
           transform="translate(646.1786,905.6312)"><path
             d="m 0,0 c 8.24,3.959 16.01,9.003 22.447,15.439 18.677,18.652 24.686,39.201 24.668,59.054 0,1.372 -0.029,2.741 -0.083,4.105 l -1.506,-0.06 1.296,-0.769 c 3.856,6.497 7.834,13.996 11.374,22.158 l -10e-4,-0.004 c 1.461,3.347 2.846,6.817 4.096,10.383 l -0.002,-0.005 c 4.28,12.063 7.24,25.17 7.241,38.456 0,0.459 -0.004,0.919 -0.01,1.377 l -1.507,-0.024 0.783,-1.286 c 2.522,1.533 5.177,2.097 7.791,2.1 3.56,0.003 7.017,-1.082 9.562,-2.189 1.273,-0.551 2.317,-1.105 3.036,-1.515 0.359,-0.206 0.637,-0.375 0.822,-0.492 l 0.206,-0.131 0.047,-0.032 0.01,-0.006 2.547,-1.731 -0.196,3.073 c -0.247,3.775 -1.942,7.383 -4.239,10.7 -3.456,4.973 -8.331,9.346 -12.353,12.52 -4.022,3.168 -7.193,5.12 -7.227,5.141 l -0.789,-1.284 0.941,-1.176 c 3.756,3.006 7.715,4.612 10.731,5.46 1.506,0.424 2.775,0.659 3.656,0.787 0.441,0.063 0.784,0.1 1.013,0.121 l 0.253,0.02 0.058,0.004 h 0.008 l 3.345,0.152 -2.33,2.403 c -1.788,1.834 -4.294,3.395 -7.097,4.8 -4.202,2.095 -9.083,3.797 -13.1,5.029 -4.014,1.231 -7.163,1.985 -7.847,2.148 l -0.155,0.035 -0.328,-1.472 1.374,-0.618 c 2.257,5.019 5.99,8.892 9.175,11.49 1.591,1.298 3.04,2.277 4.082,2.927 0.522,0.325 0.942,0.567 1.227,0.726 0.143,0.08 0.252,0.139 0.323,0.177 l 0.078,0.04 0.018,0.01 1.972,0.996 -1.646,1.472 c -1.482,1.317 -3.406,2.072 -5.509,2.541 -2.107,0.465 -4.42,0.632 -6.745,0.632 -7.587,-0.005 -15.358,-1.792 -15.416,-1.801 l 0.336,-1.47 1.479,-0.29 c 0.294,1.496 0.646,2.962 1.055,4.398 l 0.003,0.012 c 1.355,4.904 3.211,9.342 4.726,12.54 0.757,1.6 1.429,2.89 1.909,3.777 0.24,0.443 0.432,0.785 0.563,1.014 l 0.148,0.258 0.047,0.08 0.994,1.664 -1.857,0.553 c -9.922,2.944 -22.397,3.329 -28.7,3.335 -2.471,0 -3.984,-0.063 -4.001,-0.064 l 0.063,-1.505 1.399,-0.561 10.507,26.2 -2.993,-0.895 c -32.784,-9.81 -58.236,-32.512 -73.338,-48.986 l 1.111,-1.018 0.451,1.438 c -10.206,3.202 -20.133,4.451 -29.461,4.45 -17.444,-0.001 -32.792,-4.357 -44.088,-8.465 l 0.515,-1.416 0.066,1.505 c -5.39,0.234 -17.324,1.614 -31.751,3.5 -14.438,1.886 -31.418,4.279 -47.073,6.539 -13.305,1.928 -25.653,3.763 -34.675,5.115 -4.511,0.677 -8.191,1.232 -10.742,1.619 -2.552,0.387 -3.971,0.603 -3.975,0.604 l -0.455,-2.981 c 0.002,0.001 22.792,-3.481 49.415,-7.34 15.664,-2.262 32.654,-4.655 47.115,-6.545 14.472,-1.888 26.367,-3.273 32.009,-3.522 l 0.3,-0.013 0.281,0.102 c 11.113,4.045 26.118,8.286 43.058,8.285 9.06,-0.001 18.673,-1.212 28.559,-4.313 l 0.915,-0.286 0.647,0.706 c 14.888,16.26 40.016,38.592 71.979,48.134 l -0.431,1.444 -1.399,0.561 -10.214,-25.466 2.331,0.099 c 10e-4,0 0.085,0.004 0.259,0.008 0.52,0.018 1.801,0.053 3.616,0.053 6.155,0.007 18.495,-0.418 27.839,-3.21 l 0.43,1.444 -1.294,0.773 c -0.037,-0.068 -4.869,-8.15 -7.71,-18.411 l 0.003,0.012 c -0.432,-1.518 -0.804,-3.066 -1.114,-4.645 l -0.447,-2.275 2.262,0.516 c 0,0 0.107,0.025 0.325,0.071 1.522,0.329 8.182,1.659 14.419,1.655 2.177,0.001 4.299,-0.163 6.095,-0.561 1.802,-0.393 3.251,-1.032 4.149,-1.844 l 1.005,1.123 -0.679,1.345 c -0.068,-0.035 -2.856,-1.445 -6.276,-4.235 -3.416,-2.792 -7.482,-6.967 -10.017,-12.587 l -0.761,-1.687 1.942,-0.433 0.328,1.471 -0.347,-1.467 c 0.864,-0.204 6.066,-1.454 11.8,-3.447 2.865,-0.996 5.862,-2.179 8.496,-3.494 2.633,-1.31 4.901,-2.772 6.278,-4.201 l 1.082,1.049 -0.067,1.506 c -0.163,-0.017 -9.139,-0.409 -17.467,-7.051 l -1.673,-1.337 1.825,-1.123 c 0,-0.001 0.075,-0.047 0.232,-0.146 1.176,-0.744 6.627,-4.301 11.819,-9.175 2.596,-2.434 5.123,-5.198 7.019,-8.063 1.902,-2.866 3.147,-5.817 3.32,-8.602 l 1.504,0.096 0.847,1.247 c -0.055,0.037 -1.828,1.239 -4.615,2.448 -2.789,1.206 -6.597,2.434 -10.762,2.437 -3.047,0.003 -6.302,-0.676 -9.358,-2.539 l -0.737,-0.448 0.013,-0.862 c 0.007,-0.444 0.011,-0.888 0.011,-1.331 10e-4,-12.835 -2.87,-25.619 -7.068,-37.448 l -0.002,-0.005 c -1.222,-3.488 -2.579,-6.889 -4.014,-10.174 l -0.001,-0.004 C 51.951,93.102 48.031,85.711 44.23,79.307 l -0.228,-0.383 0.019,-0.445 C 44.073,77.153 44.1,75.824 44.101,74.493 44.082,55.226 38.405,35.686 20.316,17.57 14.183,11.437 6.703,6.563 -1.306,2.717 L 0,-0.001 Z"
             style="fill:#bf9d4f;fill-opacity:1;fill-rule:nonzero;stroke:none"
             id="path152" /></g><g
           id="g154"
           transform="translate(603.0341,1023.201)"><path
             d="m 0,0 0.031,-0.018 c 0.703,-0.396 13.168,-7.627 22.788,-18.407 l 2.238,1.998 C 14.704,-4.851 1.548,2.564 1.476,2.612 Z"
             style="fill:#bf9d4f;fill-opacity:1;fill-rule:nonzero;stroke:none"
             id="path156" /></g><g
           id="g158"
           transform="translate(624.8524,897.7396)"><path
             d="m 0,0 c 0.102,0.029 17.62,4.067 34.823,15.796 l -1.69,2.478 C 24.793,12.583 16.316,8.734 9.936,6.316 6.746,5.107 4.08,4.256 2.218,3.708 1.288,3.435 0.558,3.237 0.063,3.108 -0.183,3.044 -0.371,2.997 -0.496,2.966 L -0.635,2.933 -0.676,2.923 Z"
             style="fill:#bf9d4f;fill-opacity:1;fill-rule:nonzero;stroke:none"
             id="path160" /></g><g
           id="g162"
           transform="translate(604.3422,1115.6775)"><path
             d="m 0,0 0.048,-0.019 c 1.124,-0.449 21.486,-8.81 42.077,-29.31 20.593,-20.512 41.437,-53.084 43.739,-102.249 l 2.997,0.14 C 87.678,-106.06 81.61,-84.954 73.165,-67.598 60.496,-41.56 42.499,-23.974 27.675,-12.899 12.849,-1.822 1.186,2.757 1.095,2.793 Z"
             style="fill:#bf9d4f;fill-opacity:1;fill-rule:nonzero;stroke:none"
             id="path164" /></g><g
           id="g166"
           transform="translate(512.5946,1078.2512)"><path
             d="m 0,0 c -6.071,-0.662 -12.591,-2.167 -17.616,-3.505 -5.023,-1.338 -8.543,-2.512 -8.564,-2.519 l -5.445,-1.814 5.637,-1.082 c 0.004,-10e-4 1.172,-0.225 3.049,-0.596 2.816,-0.557 7.216,-1.444 11.603,-2.391 4.383,-0.946 8.767,-1.959 11.486,-2.746 l 0.833,2.882 c -3.819,1.104 -10.385,2.542 -16.041,3.718 -5.649,1.175 -10.36,2.078 -10.364,2.079 l -0.283,-1.473 0.475,-1.423 c 0,0 0.049,0.016 0.151,0.05 1.529,0.505 14.482,4.654 25.404,5.838 z"
             style="fill:#bf9d4f;fill-opacity:1;fill-rule:nonzero;stroke:none"
             id="path168" /></g></g></g></g></svg>
